<svg xmlns="http://www.w3.org/2000/svg" xml:space="preserve" viewBox="0 0 96 98.8"><path d="M26.9 7.6V10c0 1.8-.1 3.5-.2 5.2-.1 1.6-.3 3.2-.5 4.6h13.1l2-1.8 2.4 4H30.9v16.1q0 1.8 1.8 1.8h3.6c1 0 1.7-.6 2.2-1.9q.75-1.95.6-6l4.5 1.1c.8.2 1.4.6 1.7 1.1s.3 1.3.2 2.2c-.4 2.9-1.1 5.1-2.4 6.5S40 45 37.7 45h-8.8c-1.4 0-2.6-.5-3.5-1.6S24 40.8 24 38.9V28.5c-1 2.4-2.1 4.4-3.5 6.2s-3 3.3-4.7 4.7c-1.8 1.3-3.7 2.5-5.8 3.5s-4.4 1.8-6.8 2.5c4.6-3.2 8.1-6.7 10.7-10.5s4.3-8.1 5.3-12.7H5.5L4.4 20h15c.2-1.3.3-2.6.5-3.9.1-1.3.2-2.7.2-4.2V7.6H8L6.8 5.5h30l2-1.8 2.4 4H26.9zm61.9 12.6H82v-1.9h-4c1.9 3.2 4.1 5.8 6.7 7.7s5.5 3.4 8.9 4.2l-4.2 5.9c-.2.3-.6.4-1 .5-.4 0-.8-.1-1.1-.3-1.1-.6-2.1-1.5-3.2-2.7s-2.2-2.5-3.2-4.1-2-3.3-2.9-5.2q-1.35-2.85-2.4-6H63.7q-.3 2.85-1.2 5.7c-.6 1.9-1.4 3.6-2.5 5.3s-2.4 3.2-3.9 4.6c-1.6 1.4-3.4 2.7-5.5 3.8q1.8-2.55 3-5.1c.8-1.7 1.5-3.5 2-5.4s.9-3.9 1.1-6q.3-3.15.3-6.9V2.6l9.1 1.2-2.2 1.7v.1h18l1.2-1.9 7 2-1.4 2.2v12.3zM76.2 45.4c-1.2-1.3-2.4-2.6-3.8-3.8-1.4-1.3-2.8-2.4-4.2-3.5s-2.8-2-4.2-2.9c-1.4-.8-2.6-1.4-3.7-1.9 4.1.6 7.5 1.2 10.2 1.9q4.05 1.05 6.3 2.1c1.5.7 2.5 1.4 2.9 2.1q.6 1.05 0 1.8zM63.9 15.1v1.1h18V7.8h-18zm9.6 18.1c-.5-.8-1.1-1.7-1.7-2.6-.7-.9-1.4-1.8-2.2-2.7s-1.6-1.7-2.5-2.5-1.7-1.5-2.6-2c1.9.1 3.6.4 5.4.7 1.7.4 3.2.8 4.4 1.3s2 1.1 2.5 1.8c.5.6.5 1.3-.1 2zM33.2 74.7v14.2c0 1.2.6 1.8 1.7 1.8h2.3q.75 0 1.2-.3c.45-.3.5-.5.7-1q.3-.6.3-1.8c0-.8.1-1.7 0-2.8l4.5.9c.8.2 1.3.4 1.5.8s.2 1.1.1 2c-.2 1.5-.4 2.7-.8 3.6s-.8 1.7-1.3 2.2-1.2.9-2 1.1-1.6.3-2.6.3h-7.4c-1.4 0-2.6-.5-3.6-1.4s-1.5-2.4-1.5-4.3V74.7h-4.4c-.4 3-1.1 5.7-2.2 8.1s-2.4 4.5-4.1 6.3c-1.6 1.8-3.6 3.3-5.8 4.4s-4.6 2-7.2 2.5q2.4-1.5 4.5-3.6c1.4-1.4 2.6-3.1 3.7-4.9q1.65-2.7 2.7-6c.7-2.2 1.2-4.4 1.5-6.8H5.3l-1.1-2.2h16.4V53l8.8 1-1.9 1.6v16.9h11.9l2-1.8 2.4 4zm-21.4-4.1q-.15-1.5-.6-3.3c-.3-1.2-.7-2.4-1.1-3.6s-1-2.4-1.5-3.6q-.9-1.8-1.8-3.3c1.1.4 2.2.9 3.3 1.6 1.1.6 2 1.3 2.9 2s1.7 1.5 2.4 2.2c.7.8 1.2 1.5 1.5 2.2s.4 1.3.4 1.9c-.1.6-.4 1-1 1.4zm30-9.7c-1.5 2.1-3.3 4.1-5.4 5.8s-4.3 3.1-6.5 4.2c1.4-2.4 2.7-4.9 3.7-7.5s1.8-5.1 2.3-7.4l5.3 2.4c.6.3.9.6 1 1.1 0 .5-.1.9-.4 1.4m17.9 3.9v-4.7h-8.2L50.4 58h9.3v-5l8.8 1-1.9 1.6V58h10.7v-5l8.8 1-1.9 1.6V58H89l2-1.8 2.4 4h-9.3v4.7h-6.9v-4.7H66.6v4.7h-6.9zM73 71h16l2-1.8 2.4 4h-30v17.6h23l2-1.8 2.4 4H63.5v2.8h-6.9V73.2h-5L50.4 71h21.1c-.6-1.5-1.3-2.8-1.9-3.9-.7-1.1-1.4-2.1-2.2-3 1.5-.1 2.9.1 4.4.4s2.7.7 3.7 1.2 1.7 1.1 2 1.6q.45.9-.6 1.5z"/></svg>